<svg width="32" height="26" viewBox="0 0 32 26" fill="none" xmlns="http://www.w3.org/2000/svg">
<path d="M28.6523 15.1706L31.2171 4.69835C31.4022 3.94224 30.7829 3.22222 29.9474 3.22222H8.63759L8.1403 0.966163C8.01639 0.403835 7.48318 0 6.86464 0H1.30208C0.582954 0 0 0.540981 0 1.20833V2.01389C0 2.68124 0.582954 3.22222 1.30208 3.22222H5.09348L8.90468 20.5132C7.99289 20.9998 7.37847 21.9122 7.37847 22.9583C7.37847 24.5155 8.73872 25.7778 10.4167 25.7778C12.0946 25.7778 13.4549 24.5155 13.4549 22.9583C13.4549 22.1692 13.1051 21.4562 12.5421 20.9444H23.9162C23.3532 21.4562 23.0035 22.1692 23.0035 22.9583C23.0035 24.5155 24.3637 25.7778 26.0417 25.7778C27.7196 25.7778 29.0799 24.5155 29.0799 22.9583C29.0799 21.842 28.3806 20.8774 27.3666 20.4206L27.6659 19.1984C27.8511 18.4422 27.2318 17.7222 26.3962 17.7222H11.8336L11.4785 16.1111H27.3827C27.9906 16.1111 28.5176 15.7207 28.6523 15.1706Z" fill="black"/>
</svg>
